<?xml version="1.0" encoding="utf-8"?>
<!-- Generator: Adobe Illustrator 16.0.0, SVG Export Plug-In . SVG Version: 6.00 Build 0)  -->
<!DOCTYPE svg PUBLIC "-//W3C//DTD SVG 1.0//EN" "http://www.w3.org/TR/2001/REC-SVG-20010904/DTD/svg10.dtd">
<svg version="1.0" id="圖層_1" xmlns="http://www.w3.org/2000/svg" xmlns:xlink="http://www.w3.org/1999/xlink" x="0px" y="0px"
	 width="178.582px" height="249.449px" viewBox="0 0 178.582 249.449" enable-background="new 0 0 178.582 249.449"
	 xml:space="preserve">
<path fill="#FFFFFF" stroke="#000000" stroke-width="2" stroke-miterlimit="10" d="M175.747,237.256
	c0,4.546-3.686,8.233-8.233,8.233H11.068c-4.548,0-8.233-3.688-8.233-8.233V12.194c0-4.55,3.687-8.234,8.233-8.234h156.445
	c4.549,0,8.233,3.686,8.233,8.234V237.256z"/>
<g>
	<g id="PathID_5_1_" transform="matrix(-0.00986496, 1.07636, -1.07636, -0.00986496, 301, 166)">
		<path d="M-0.719,216.637l6.855,4.082l-2.04,3.386c-0.789,1.332-1.863,2.76-3.222,4.283c-2.773,3.1-5.781,5.454-9.017,7.058
			c-3.045,1.47-6.147,2.204-9.3,2.204l-0.041,0c-3.671,0-7.332-0.979-10.976-2.937c-3.889-2.123-7.723-5.371-11.504-9.751
			c-2.883-3.292-5.752-5.698-8.607-7.221c-2.337-1.198-4.636-1.795-6.895-1.795c-1.822-0.028-3.658,0.367-5.507,1.185
			c-1.577,0.653-3.101,1.576-4.568,2.774l-3.183,2.978l-1.224,1.47l0,0.04l-2.285,3.264l-6.528-4.57l2.285-3.264l0.897-1.222
			l2.366-2.57c2.745-2.693,5.71-4.746,8.894-6.16c2.911-1.278,5.862-1.918,8.854-1.918c3.591,0.002,7.125,0.913,10.607,2.734
			c3.753,1.984,7.383,5.005,10.893,9.057c3.154,3.644,6.269,6.296,9.342,7.956c2.447,1.332,4.841,1.997,7.181,1.998
			c1.876-0.003,3.752-0.448,5.629-1.346c1.603-0.762,3.153-1.823,4.651-3.183l3.183-3.385l1.223-1.756L-0.719,216.637"/>
	</g>
	<g id="PathID_7_1_" transform="matrix(-0.00986496, 1.07636, -1.07636, -0.00986496, 330, 166)">
		<path d="M-0.709,217.806l6.855,4.08l-2.039,3.387c-0.789,1.334-1.864,2.762-3.223,4.284c-2.773,3.101-5.781,5.453-9.017,7.058
			c-3.045,1.469-6.147,2.203-9.299,2.202l-0.041,0c-3.672,0.002-7.332-0.978-10.977-2.94c-3.889-2.119-7.723-5.369-11.504-9.749
			c-2.883-3.292-5.752-5.698-8.606-7.221c-2.338-1.194-4.637-1.796-6.895-1.794c-1.822-0.027-3.658,0.367-5.507,1.182
			c-1.576,0.654-3.1,1.58-4.567,2.776l-3.184,2.98l-1.224,1.467l0,0.043l-2.285,3.262l-6.528-4.569l2.285-3.263l0.897-1.224
			l2.366-2.568c2.746-2.694,5.71-4.748,8.894-6.161c2.911-1.277,5.862-1.917,8.854-1.917c3.591,0.002,7.125,0.912,10.607,2.734
			c3.753,1.983,7.383,5.004,10.893,9.056c3.154,3.644,6.269,6.295,9.342,7.957c2.447,1.332,4.841,1.999,7.181,1.997
			c1.876,0.002,3.752-0.448,5.629-1.345c1.604-0.761,3.154-1.824,4.651-3.185l3.183-3.384l1.224-1.754L-0.709,217.806"/>
	</g>
	<g id="PathID_9_1_" transform="matrix(-0.00986496, 1.07636, -1.07636, -0.00986496, 369, 166)">
		<path d="M-0.613,228.265l6.855,4.08l-2.039,3.387c-0.789,1.332-1.864,2.761-3.223,4.283c-2.774,3.103-5.781,5.455-9.017,7.059
			c-3.046,1.469-6.147,2.203-9.299,2.204l-0.041-0.001c-3.672,0.001-7.333-0.978-10.976-2.937c-3.889-2.122-7.723-5.371-11.505-9.75
			c-2.883-3.292-5.753-5.699-8.607-7.219c-2.337-1.198-4.636-1.795-6.895-1.798c-1.822-0.027-3.658,0.367-5.506,1.185
			c-1.577,0.652-3.101,1.578-4.568,2.776l-3.184,2.977l-1.224,1.468l0,0.042l-2.285,3.264l-6.528-4.57l2.285-3.264l0.897-1.224
			l2.366-2.569c2.746-2.692,5.711-4.745,8.894-6.159c2.911-1.279,5.862-1.918,8.854-1.917c3.591,0.001,7.125,0.912,10.607,2.734
			c3.753,1.986,7.383,5.005,10.893,9.056c3.154,3.643,6.269,6.296,9.343,7.956c2.446,1.334,4.841,1.999,7.18,1.999
			c1.876,0,3.752-0.448,5.629-1.347c1.604-0.76,3.154-1.824,4.65-3.184l3.183-3.386l1.224-1.753L-0.613,228.265"/>
	</g>
</g>
</svg>
