<?xml version="1.0" encoding="utf-8"?>
<!-- Generator: Adobe Illustrator 16.0.0, SVG Export Plug-In . SVG Version: 6.00 Build 0)  -->
<!DOCTYPE svg PUBLIC "-//W3C//DTD SVG 1.0//EN" "http://www.w3.org/TR/2001/REC-SVG-20010904/DTD/svg10.dtd">
<svg version="1.0" id="圖層_1" xmlns="http://www.w3.org/2000/svg" xmlns:xlink="http://www.w3.org/1999/xlink" x="0px" y="0px"
	 width="178.582px" height="249.449px" viewBox="0 0 178.582 249.449" enable-background="new 0 0 178.582 249.449"
	 xml:space="preserve">
<g>
	<path fill="#FFFFFF" stroke="#000000" stroke-width="2" stroke-miterlimit="10" d="M175.536,237.236
		c0,4.545-3.688,8.234-8.234,8.234H10.857c-4.548,0-8.234-3.689-8.234-8.234V12.176c0-4.549,3.688-8.234,8.234-8.234h156.444
		c4.548,0,8.234,3.686,8.234,8.234V237.236L175.536,237.236z"/>
</g>
<g id="PathID_2_1_" transform="matrix(0.999999, -0.00147037, 0.00147037, 0.999999, 66, 178.85)">
	<path fill="none" stroke="#040000" stroke-width="8" stroke-linecap="round" stroke-linejoin="round" stroke-miterlimit="3" d="
		M33.553-63.871l33.538,0.094L39.853-44.213l10.233,31.978l-27.002-19.85L-4.157-12.473L6.36-44.352l-27.096-19.802l33.587,0.19
		L23.32-95.94L33.553-63.871z"/>
</g>
</svg>
